<mxfile host="app.diagrams.net" modified="2023-10-02T06:38:53.979Z" agent="Mozilla/5.0 (Windows NT 10.0; Win64; x64) AppleWebKit/537.36 (KHTML, like Gecko) Chrome/117.0.0.0 Safari/537.36" etag="Xw8G5ExOpJ7djcyVO794" version="22.0.0" type="github">
  <diagram id="prtHgNgQTEPvFCAcTncT" name="Page-1">
    <mxGraphModel dx="1434" dy="2436" grid="1" gridSize="10" guides="1" tooltips="1" connect="1" arrows="1" fold="1" page="1" pageScale="1" pageWidth="1169" pageHeight="827" background="none" math="0" shadow="0">
      <root>
        <mxCell id="0" />
        <mxCell id="1" parent="0" />
        <mxCell id="w5jbvKAm1A8JpJtBd1L4-11" style="edgeStyle=orthogonalEdgeStyle;rounded=0;orthogonalLoop=1;jettySize=auto;html=1;exitX=1;exitY=0.5;exitDx=0;exitDy=0;entryX=0.5;entryY=0;entryDx=0;entryDy=0;" edge="1" parent="1" source="w5jbvKAm1A8JpJtBd1L4-2" target="w5jbvKAm1A8JpJtBd1L4-6">
          <mxGeometry relative="1" as="geometry" />
        </mxCell>
        <mxCell id="w5jbvKAm1A8JpJtBd1L4-12" style="edgeStyle=orthogonalEdgeStyle;rounded=0;orthogonalLoop=1;jettySize=auto;html=1;exitX=0.5;exitY=1;exitDx=0;exitDy=0;entryX=0.5;entryY=0;entryDx=0;entryDy=0;" edge="1" parent="1" source="w5jbvKAm1A8JpJtBd1L4-2" target="w5jbvKAm1A8JpJtBd1L4-5">
          <mxGeometry relative="1" as="geometry" />
        </mxCell>
        <mxCell id="w5jbvKAm1A8JpJtBd1L4-2" value="Director" style="rounded=0;whiteSpace=wrap;html=1;" vertex="1" parent="1">
          <mxGeometry x="520" y="-1630" width="120" height="60" as="geometry" />
        </mxCell>
        <mxCell id="w5jbvKAm1A8JpJtBd1L4-34" style="edgeStyle=orthogonalEdgeStyle;rounded=0;orthogonalLoop=1;jettySize=auto;html=1;exitX=0.5;exitY=1;exitDx=0;exitDy=0;entryX=1;entryY=0.5;entryDx=0;entryDy=0;" edge="1" parent="1" source="w5jbvKAm1A8JpJtBd1L4-3" target="w5jbvKAm1A8JpJtBd1L4-13">
          <mxGeometry relative="1" as="geometry" />
        </mxCell>
        <mxCell id="w5jbvKAm1A8JpJtBd1L4-35" style="edgeStyle=orthogonalEdgeStyle;rounded=0;orthogonalLoop=1;jettySize=auto;html=1;exitX=0.5;exitY=1;exitDx=0;exitDy=0;entryX=1;entryY=0.5;entryDx=0;entryDy=0;" edge="1" parent="1" source="w5jbvKAm1A8JpJtBd1L4-3" target="w5jbvKAm1A8JpJtBd1L4-14">
          <mxGeometry relative="1" as="geometry" />
        </mxCell>
        <mxCell id="w5jbvKAm1A8JpJtBd1L4-36" style="edgeStyle=orthogonalEdgeStyle;rounded=0;orthogonalLoop=1;jettySize=auto;html=1;exitX=0.5;exitY=1;exitDx=0;exitDy=0;entryX=1;entryY=0.5;entryDx=0;entryDy=0;" edge="1" parent="1" source="w5jbvKAm1A8JpJtBd1L4-3" target="w5jbvKAm1A8JpJtBd1L4-15">
          <mxGeometry relative="1" as="geometry" />
        </mxCell>
        <mxCell id="w5jbvKAm1A8JpJtBd1L4-37" style="edgeStyle=orthogonalEdgeStyle;rounded=0;orthogonalLoop=1;jettySize=auto;html=1;exitX=0.5;exitY=1;exitDx=0;exitDy=0;entryX=1;entryY=0.5;entryDx=0;entryDy=0;" edge="1" parent="1" source="w5jbvKAm1A8JpJtBd1L4-3" target="w5jbvKAm1A8JpJtBd1L4-16">
          <mxGeometry relative="1" as="geometry" />
        </mxCell>
        <mxCell id="w5jbvKAm1A8JpJtBd1L4-38" style="edgeStyle=orthogonalEdgeStyle;rounded=0;orthogonalLoop=1;jettySize=auto;html=1;exitX=0.5;exitY=1;exitDx=0;exitDy=0;entryX=1;entryY=0.5;entryDx=0;entryDy=0;" edge="1" parent="1" source="w5jbvKAm1A8JpJtBd1L4-3" target="w5jbvKAm1A8JpJtBd1L4-17">
          <mxGeometry relative="1" as="geometry" />
        </mxCell>
        <mxCell id="w5jbvKAm1A8JpJtBd1L4-39" style="edgeStyle=orthogonalEdgeStyle;rounded=0;orthogonalLoop=1;jettySize=auto;html=1;exitX=0.5;exitY=1;exitDx=0;exitDy=0;entryX=1;entryY=0.5;entryDx=0;entryDy=0;" edge="1" parent="1" source="w5jbvKAm1A8JpJtBd1L4-3" target="w5jbvKAm1A8JpJtBd1L4-18">
          <mxGeometry relative="1" as="geometry" />
        </mxCell>
        <mxCell id="w5jbvKAm1A8JpJtBd1L4-40" style="edgeStyle=orthogonalEdgeStyle;rounded=0;orthogonalLoop=1;jettySize=auto;html=1;exitX=0.5;exitY=1;exitDx=0;exitDy=0;entryX=1;entryY=0.5;entryDx=0;entryDy=0;" edge="1" parent="1" source="w5jbvKAm1A8JpJtBd1L4-3" target="w5jbvKAm1A8JpJtBd1L4-19">
          <mxGeometry relative="1" as="geometry" />
        </mxCell>
        <mxCell id="w5jbvKAm1A8JpJtBd1L4-3" value="B.U Bank" style="rounded=0;whiteSpace=wrap;html=1;hachureGap=4;fontFamily=Helvetica;fontSize=12;" vertex="1" parent="1">
          <mxGeometry x="240" y="-1520" width="120" height="60" as="geometry" />
        </mxCell>
        <mxCell id="w5jbvKAm1A8JpJtBd1L4-41" style="edgeStyle=orthogonalEdgeStyle;rounded=0;orthogonalLoop=1;jettySize=auto;html=1;exitX=0.5;exitY=1;exitDx=0;exitDy=0;entryX=1;entryY=0.5;entryDx=0;entryDy=0;" edge="1" parent="1" source="w5jbvKAm1A8JpJtBd1L4-5" target="w5jbvKAm1A8JpJtBd1L4-20">
          <mxGeometry relative="1" as="geometry" />
        </mxCell>
        <mxCell id="w5jbvKAm1A8JpJtBd1L4-42" style="edgeStyle=orthogonalEdgeStyle;rounded=0;orthogonalLoop=1;jettySize=auto;html=1;exitX=0.5;exitY=1;exitDx=0;exitDy=0;entryX=1;entryY=0.5;entryDx=0;entryDy=0;" edge="1" parent="1" source="w5jbvKAm1A8JpJtBd1L4-5" target="w5jbvKAm1A8JpJtBd1L4-21">
          <mxGeometry relative="1" as="geometry" />
        </mxCell>
        <mxCell id="w5jbvKAm1A8JpJtBd1L4-43" style="edgeStyle=orthogonalEdgeStyle;rounded=0;orthogonalLoop=1;jettySize=auto;html=1;exitX=0.5;exitY=1;exitDx=0;exitDy=0;entryX=1;entryY=0.5;entryDx=0;entryDy=0;" edge="1" parent="1" source="w5jbvKAm1A8JpJtBd1L4-5" target="w5jbvKAm1A8JpJtBd1L4-22">
          <mxGeometry relative="1" as="geometry" />
        </mxCell>
        <mxCell id="w5jbvKAm1A8JpJtBd1L4-44" style="edgeStyle=orthogonalEdgeStyle;rounded=0;orthogonalLoop=1;jettySize=auto;html=1;exitX=0.5;exitY=1;exitDx=0;exitDy=0;entryX=1;entryY=0.5;entryDx=0;entryDy=0;" edge="1" parent="1" source="w5jbvKAm1A8JpJtBd1L4-5" target="w5jbvKAm1A8JpJtBd1L4-23">
          <mxGeometry relative="1" as="geometry" />
        </mxCell>
        <mxCell id="w5jbvKAm1A8JpJtBd1L4-45" style="edgeStyle=orthogonalEdgeStyle;rounded=0;orthogonalLoop=1;jettySize=auto;html=1;exitX=0.5;exitY=1;exitDx=0;exitDy=0;entryX=1;entryY=0.5;entryDx=0;entryDy=0;" edge="1" parent="1" source="w5jbvKAm1A8JpJtBd1L4-5" target="w5jbvKAm1A8JpJtBd1L4-24">
          <mxGeometry relative="1" as="geometry" />
        </mxCell>
        <mxCell id="w5jbvKAm1A8JpJtBd1L4-46" style="edgeStyle=orthogonalEdgeStyle;rounded=0;orthogonalLoop=1;jettySize=auto;html=1;exitX=0.5;exitY=1;exitDx=0;exitDy=0;entryX=1;entryY=0.5;entryDx=0;entryDy=0;" edge="1" parent="1" source="w5jbvKAm1A8JpJtBd1L4-5" target="w5jbvKAm1A8JpJtBd1L4-25">
          <mxGeometry relative="1" as="geometry" />
        </mxCell>
        <mxCell id="w5jbvKAm1A8JpJtBd1L4-47" style="edgeStyle=orthogonalEdgeStyle;rounded=0;orthogonalLoop=1;jettySize=auto;html=1;exitX=0.5;exitY=1;exitDx=0;exitDy=0;entryX=1;entryY=0.5;entryDx=0;entryDy=0;" edge="1" parent="1" source="w5jbvKAm1A8JpJtBd1L4-5" target="w5jbvKAm1A8JpJtBd1L4-26">
          <mxGeometry relative="1" as="geometry" />
        </mxCell>
        <mxCell id="w5jbvKAm1A8JpJtBd1L4-5" value="B.U Public Administratio" style="rounded=0;whiteSpace=wrap;html=1;hachureGap=4;fontFamily=Helvetica;fontSize=12;" vertex="1" parent="1">
          <mxGeometry x="520" y="-1520" width="120" height="60" as="geometry" />
        </mxCell>
        <mxCell id="w5jbvKAm1A8JpJtBd1L4-50" style="edgeStyle=orthogonalEdgeStyle;rounded=0;orthogonalLoop=1;jettySize=auto;html=1;exitX=0.5;exitY=1;exitDx=0;exitDy=0;entryX=1;entryY=0.5;entryDx=0;entryDy=0;" edge="1" parent="1" source="w5jbvKAm1A8JpJtBd1L4-6" target="w5jbvKAm1A8JpJtBd1L4-27">
          <mxGeometry relative="1" as="geometry" />
        </mxCell>
        <mxCell id="w5jbvKAm1A8JpJtBd1L4-51" style="edgeStyle=orthogonalEdgeStyle;rounded=0;orthogonalLoop=1;jettySize=auto;html=1;exitX=0.5;exitY=1;exitDx=0;exitDy=0;entryX=1;entryY=0.5;entryDx=0;entryDy=0;" edge="1" parent="1" source="w5jbvKAm1A8JpJtBd1L4-6" target="w5jbvKAm1A8JpJtBd1L4-28">
          <mxGeometry relative="1" as="geometry" />
        </mxCell>
        <mxCell id="w5jbvKAm1A8JpJtBd1L4-52" style="edgeStyle=orthogonalEdgeStyle;rounded=0;orthogonalLoop=1;jettySize=auto;html=1;exitX=0.5;exitY=1;exitDx=0;exitDy=0;entryX=1;entryY=0.5;entryDx=0;entryDy=0;" edge="1" parent="1" source="w5jbvKAm1A8JpJtBd1L4-6" target="w5jbvKAm1A8JpJtBd1L4-29">
          <mxGeometry relative="1" as="geometry" />
        </mxCell>
        <mxCell id="w5jbvKAm1A8JpJtBd1L4-53" style="edgeStyle=orthogonalEdgeStyle;rounded=0;orthogonalLoop=1;jettySize=auto;html=1;exitX=0.5;exitY=1;exitDx=0;exitDy=0;entryX=1;entryY=0.5;entryDx=0;entryDy=0;" edge="1" parent="1" source="w5jbvKAm1A8JpJtBd1L4-6" target="w5jbvKAm1A8JpJtBd1L4-30">
          <mxGeometry relative="1" as="geometry" />
        </mxCell>
        <mxCell id="w5jbvKAm1A8JpJtBd1L4-54" style="edgeStyle=orthogonalEdgeStyle;rounded=0;orthogonalLoop=1;jettySize=auto;html=1;exitX=0.5;exitY=1;exitDx=0;exitDy=0;entryX=1;entryY=0.5;entryDx=0;entryDy=0;" edge="1" parent="1" source="w5jbvKAm1A8JpJtBd1L4-6" target="w5jbvKAm1A8JpJtBd1L4-31">
          <mxGeometry relative="1" as="geometry" />
        </mxCell>
        <mxCell id="w5jbvKAm1A8JpJtBd1L4-55" style="edgeStyle=orthogonalEdgeStyle;rounded=0;orthogonalLoop=1;jettySize=auto;html=1;exitX=0.5;exitY=1;exitDx=0;exitDy=0;entryX=1;entryY=0.5;entryDx=0;entryDy=0;" edge="1" parent="1" source="w5jbvKAm1A8JpJtBd1L4-6" target="w5jbvKAm1A8JpJtBd1L4-32">
          <mxGeometry relative="1" as="geometry" />
        </mxCell>
        <mxCell id="w5jbvKAm1A8JpJtBd1L4-56" style="edgeStyle=orthogonalEdgeStyle;rounded=0;orthogonalLoop=1;jettySize=auto;html=1;exitX=0.5;exitY=1;exitDx=0;exitDy=0;entryX=1;entryY=0.5;entryDx=0;entryDy=0;" edge="1" parent="1" source="w5jbvKAm1A8JpJtBd1L4-6" target="w5jbvKAm1A8JpJtBd1L4-33">
          <mxGeometry relative="1" as="geometry" />
        </mxCell>
        <mxCell id="w5jbvKAm1A8JpJtBd1L4-6" value="B.U Public Administratio" style="rounded=0;whiteSpace=wrap;html=1;hachureGap=4;fontFamily=Helvetica;fontSize=12;" vertex="1" parent="1">
          <mxGeometry x="800" y="-1520" width="120" height="60" as="geometry" />
        </mxCell>
        <mxCell id="w5jbvKAm1A8JpJtBd1L4-8" style="edgeStyle=orthogonalEdgeStyle;rounded=0;orthogonalLoop=1;jettySize=auto;html=1;exitX=0;exitY=0.5;exitDx=0;exitDy=0;entryX=0.5;entryY=0;entryDx=0;entryDy=0;" edge="1" parent="1" source="w5jbvKAm1A8JpJtBd1L4-2" target="w5jbvKAm1A8JpJtBd1L4-3">
          <mxGeometry relative="1" as="geometry">
            <mxPoint x="310" y="-1540" as="targetPoint" />
          </mxGeometry>
        </mxCell>
        <mxCell id="w5jbvKAm1A8JpJtBd1L4-13" value="Administration &amp;amp; Control" style="rounded=0;whiteSpace=wrap;html=1;" vertex="1" parent="1">
          <mxGeometry x="120" y="-1440" width="120" height="60" as="geometry" />
        </mxCell>
        <mxCell id="w5jbvKAm1A8JpJtBd1L4-14" value="Quality Control" style="rounded=0;whiteSpace=wrap;html=1;" vertex="1" parent="1">
          <mxGeometry x="120" y="-1360" width="120" height="60" as="geometry" />
        </mxCell>
        <mxCell id="w5jbvKAm1A8JpJtBd1L4-15" value="Marketing &amp;amp; Sells" style="rounded=0;whiteSpace=wrap;html=1;" vertex="1" parent="1">
          <mxGeometry x="120" y="-1280" width="120" height="60" as="geometry" />
        </mxCell>
        <mxCell id="w5jbvKAm1A8JpJtBd1L4-16" value="Software Development" style="rounded=0;whiteSpace=wrap;html=1;" vertex="1" parent="1">
          <mxGeometry x="120" y="-1200" width="120" height="60" as="geometry" />
        </mxCell>
        <mxCell id="w5jbvKAm1A8JpJtBd1L4-17" value="Sistemi &amp;amp; Reti" style="rounded=0;whiteSpace=wrap;html=1;" vertex="1" parent="1">
          <mxGeometry x="120" y="-1120" width="120" height="60" as="geometry" />
        </mxCell>
        <mxCell id="w5jbvKAm1A8JpJtBd1L4-18" value="Internal &amp;amp; External Formation" style="rounded=0;whiteSpace=wrap;html=1;" vertex="1" parent="1">
          <mxGeometry x="120" y="-1040" width="120" height="60" as="geometry" />
        </mxCell>
        <mxCell id="w5jbvKAm1A8JpJtBd1L4-19" value="customer service and support" style="rounded=0;whiteSpace=wrap;html=1;" vertex="1" parent="1">
          <mxGeometry x="120" y="-960" width="120" height="60" as="geometry" />
        </mxCell>
        <mxCell id="w5jbvKAm1A8JpJtBd1L4-20" value="Administration &amp;amp; Control" style="rounded=0;whiteSpace=wrap;html=1;" vertex="1" parent="1">
          <mxGeometry x="400" y="-1440" width="120" height="60" as="geometry" />
        </mxCell>
        <mxCell id="w5jbvKAm1A8JpJtBd1L4-21" value="Quality Control" style="rounded=0;whiteSpace=wrap;html=1;" vertex="1" parent="1">
          <mxGeometry x="400" y="-1360" width="120" height="60" as="geometry" />
        </mxCell>
        <mxCell id="w5jbvKAm1A8JpJtBd1L4-22" value="Marketing &amp;amp; Sells" style="rounded=0;whiteSpace=wrap;html=1;" vertex="1" parent="1">
          <mxGeometry x="400" y="-1280" width="120" height="60" as="geometry" />
        </mxCell>
        <mxCell id="w5jbvKAm1A8JpJtBd1L4-23" value="Software Development" style="rounded=0;whiteSpace=wrap;html=1;" vertex="1" parent="1">
          <mxGeometry x="400" y="-1200" width="120" height="60" as="geometry" />
        </mxCell>
        <mxCell id="w5jbvKAm1A8JpJtBd1L4-24" value="Sistemi &amp;amp; Reti" style="rounded=0;whiteSpace=wrap;html=1;" vertex="1" parent="1">
          <mxGeometry x="400" y="-1120" width="120" height="60" as="geometry" />
        </mxCell>
        <mxCell id="w5jbvKAm1A8JpJtBd1L4-25" value="Internal &amp;amp; External Formation" style="rounded=0;whiteSpace=wrap;html=1;" vertex="1" parent="1">
          <mxGeometry x="400" y="-1040" width="120" height="60" as="geometry" />
        </mxCell>
        <mxCell id="w5jbvKAm1A8JpJtBd1L4-26" value="customer service and support" style="rounded=0;whiteSpace=wrap;html=1;" vertex="1" parent="1">
          <mxGeometry x="400" y="-960" width="120" height="60" as="geometry" />
        </mxCell>
        <mxCell id="w5jbvKAm1A8JpJtBd1L4-27" value="Administration &amp;amp; Control" style="rounded=0;whiteSpace=wrap;html=1;" vertex="1" parent="1">
          <mxGeometry x="680" y="-1440" width="120" height="60" as="geometry" />
        </mxCell>
        <mxCell id="w5jbvKAm1A8JpJtBd1L4-28" value="Quality Control" style="rounded=0;whiteSpace=wrap;html=1;" vertex="1" parent="1">
          <mxGeometry x="680" y="-1360" width="120" height="60" as="geometry" />
        </mxCell>
        <mxCell id="w5jbvKAm1A8JpJtBd1L4-29" value="Marketing &amp;amp; Sells" style="rounded=0;whiteSpace=wrap;html=1;" vertex="1" parent="1">
          <mxGeometry x="680" y="-1280" width="120" height="60" as="geometry" />
        </mxCell>
        <mxCell id="w5jbvKAm1A8JpJtBd1L4-30" value="Software Development" style="rounded=0;whiteSpace=wrap;html=1;" vertex="1" parent="1">
          <mxGeometry x="680" y="-1200" width="120" height="60" as="geometry" />
        </mxCell>
        <mxCell id="w5jbvKAm1A8JpJtBd1L4-31" value="Sistemi &amp;amp; Reti" style="rounded=0;whiteSpace=wrap;html=1;" vertex="1" parent="1">
          <mxGeometry x="680" y="-1120" width="120" height="60" as="geometry" />
        </mxCell>
        <mxCell id="w5jbvKAm1A8JpJtBd1L4-32" value="Internal &amp;amp; External Formation" style="rounded=0;whiteSpace=wrap;html=1;" vertex="1" parent="1">
          <mxGeometry x="680" y="-1040" width="120" height="60" as="geometry" />
        </mxCell>
        <mxCell id="w5jbvKAm1A8JpJtBd1L4-33" value="customer service and support" style="rounded=0;whiteSpace=wrap;html=1;" vertex="1" parent="1">
          <mxGeometry x="680" y="-960" width="120" height="60" as="geometry" />
        </mxCell>
      </root>
    </mxGraphModel>
  </diagram>
</mxfile>
